<svg width="981" height="763" viewBox="0 0 981 763" fill="none" xmlns="http://www.w3.org/2000/svg">
<g opacity="0.3" filter="url(#filter0_f_649_5655)">
<path fill-rule="evenodd" clip-rule="evenodd" d="M591.209 437.001C580.173 471.669 554.914 498.19 532.037 526.462C512.326 550.821 491.32 572.535 466.292 591.373C438.414 612.356 412.122 641.558 377.273 642.946C342.311 644.339 312.951 618.407 284.067 598.634C256.911 580.044 237.575 554.427 214.166 531.286C182.126 499.612 126.833 481.642 120.566 437.001C114.507 393.845 158.489 360.35 185.353 326.061C209.162 295.671 235.738 268.755 268.438 248.262C302.015 227.219 338.082 200.019 377.273 205.785C416.401 211.54 433.038 261.499 469.088 277.779C511.116 296.758 573.755 270.58 601.836 307.192C628.703 342.222 604.604 394.919 591.209 437.001Z" fill="#82F7FF"/>
</g>
<g opacity="0.3" filter="url(#filter1_f_649_5655)">
<path fill-rule="evenodd" clip-rule="evenodd" d="M838.209 352.001C827.173 386.669 801.914 413.19 779.037 441.462C759.326 465.821 738.32 487.535 713.292 506.373C685.414 527.356 659.122 556.558 624.273 557.946C589.311 559.339 559.951 533.407 531.067 513.634C503.911 495.044 484.575 469.427 461.166 446.286C429.126 414.612 373.833 396.642 367.566 352.001C361.507 308.845 405.489 275.35 432.353 241.061C456.162 210.671 482.738 183.755 515.438 163.262C549.015 142.219 585.082 115.019 624.273 120.785C663.401 126.54 680.038 176.499 716.088 192.779C758.116 211.758 820.755 185.58 848.836 222.192C875.703 257.222 851.604 309.919 838.209 352.001Z" fill="#82FFD2"/>
</g>
<defs>
<filter id="filter0_f_649_5655" x="0" y="85" width="734" height="678" filterUnits="userSpaceOnUse" color-interpolation-filters="sRGB">
<feFlood flood-opacity="0" result="BackgroundImageFix"/>
<feBlend mode="normal" in="SourceGraphic" in2="BackgroundImageFix" result="shape"/>
<feGaussianBlur stdDeviation="60" result="effect1_foregroundBlur_649_5655"/>
</filter>
<filter id="filter1_f_649_5655" x="247" y="0" width="734" height="678" filterUnits="userSpaceOnUse" color-interpolation-filters="sRGB">
<feFlood flood-opacity="0" result="BackgroundImageFix"/>
<feBlend mode="normal" in="SourceGraphic" in2="BackgroundImageFix" result="shape"/>
<feGaussianBlur stdDeviation="60" result="effect1_foregroundBlur_649_5655"/>
</filter>
</defs>
</svg>
